Coordinates
version=1
nRows=16
nColumns=63
inDegrees=yes

Units are S.I. units (second, meters, Newtons, ...)
If the header above contains a line with 'inDegrees', this indicates whether rotational values are in degrees (yes) or radians (no).

endheader
time	pelvis_tilt	pelvis_list	pelvis_rotation	pelvis_tx	pelvis_ty	pelvis_tz	hip_flexion_r	hip_adduction_r	hip_rotation_r	knee_angle_r	knee_angle_r_beta	ankle_angle_r	subtalar_angle_r	mtp_angle_r	hip_flexion_l	hip_adduction_l	hip_rotation_l	knee_angle_l	knee_angle_l_beta	ankle_angle_l	subtalar_angle_l	mtp_angle_l	L5_S1_Flex_Ext	L5_S1_Lat_Bending	L5_S1_axial_rotation	L4_L5_Flex_Ext	L4_L5_Lat_Bending	L4_L5_axial_rotation	L3_L4_Flex_Ext	L3_L4_Lat_Bending	L3_L4_axial_rotation	L2_L3_Flex_Ext	L2_L3_Lat_Bending	L2_L3_axial_rotation	L1_L2_Flex_Ext	L1_L2_Lat_Bending	L1_L2_axial_rotation	L1_T12_Flex_Ext	L1_T12_Lat_Bending	L1_T12_axial_rotation	Abs_r3	Abs_r2	Abs_r1	Abs_t1	Abs_t2	neck_flexion	neck_bending	neck_rotation	arm_flex_r	arm_add_r	arm_rot_r	elbow_flex_r	pro_sup_r	wrist_flex_r	wrist_dev_r	arm_flex_l	arm_add_l	arm_rot_l	elbow_flex_l	pro_sup_l	wrist_flex_l	wrist_dev_l
2.566667	0.060355	-5.759504	101.413491	0.204360	1.003122	0.520534	-2.905644	1.590332	-13.180663	5.822959	0.101630	26.256893	-2.702591	0.000000	-0.031477	-0.343108	5.419444	7.590045	0.132471	28.966792	-0.928101	0.000000	-0.012339	-0.027660	-2.388176	-0.022914	-0.036787	-2.537437	-0.020271	-0.067251	-2.537437	-0.014102	-0.067251	-2.089654	-0.011458	-0.056403	-1.940393	-0.007050	-0.042845	-1.791132	-0.088135	-0.312890	-13.282318	0.000000	0.000000	23.300800	3.065455	7.303959	19.138362	-5.137390	92.115956	33.806284	79.805556	5.466183	-5.783221	5.970952	-7.035700	43.035683	44.979688	84.630689	17.311279	14.751439
2.583333	0.176970	-5.735951	101.419083	0.205033	1.003124	0.520796	-2.964982	1.804598	-12.538357	5.587396	0.097518	26.062299	-3.380324	0.000000	-0.020773	-0.502308	5.649324	7.588231	0.132440	28.896276	-1.232179	0.000000	-0.014519	-0.020070	-2.405187	-0.026963	-0.026693	-2.555511	-0.023853	-0.048797	-2.555511	-0.016594	-0.048797	-2.104538	-0.013482	-0.040926	-1.954214	-0.008296	-0.031088	-1.803890	-0.103709	-0.227032	-13.376927	0.000000	0.000000	23.118456	3.161784	7.459241	19.119643	-5.184738	91.270424	34.083946	82.078637	5.762680	-6.133395	5.730153	-7.205350	42.631391	45.608296	84.352730	16.824042	15.156756
2.600000	0.265346	-5.728840	101.398914	0.205714	1.003135	0.521003	-3.034425	1.987441	-11.844688	5.323848	0.092919	25.851264	-4.093312	0.000000	-0.019498	-0.624871	5.961491	7.538196	0.131566	28.808584	-1.597502	0.000000	-0.016400	-0.016577	-2.407986	-0.030456	-0.022047	-2.558486	-0.026943	-0.040305	-2.558486	-0.018743	-0.040305	-2.106988	-0.015229	-0.033804	-1.956489	-0.009371	-0.025678	-1.805990	-0.117143	-0.187522	-13.392498	0.000000	0.000000	22.942174	3.246426	7.484212	18.951557	-5.268657	90.117546	34.433745	83.185560	6.085859	-6.179979	5.449938	-7.327018	41.999205	46.268172	84.154310	16.413145	15.628333
2.616667	0.328331	-5.732655	101.363582	0.206389	1.003166	0.521161	-3.124458	2.142704	-11.157789	5.029544	0.087782	25.612650	-4.801863	0.000000	-0.008728	-0.725649	6.116862	7.489977	0.130725	28.805684	-1.676952	0.000000	-0.019301	-0.016739	-2.395759	-0.035843	-0.022262	-2.545494	-0.031709	-0.040698	-2.545494	-0.022059	-0.040698	-2.096289	-0.017923	-0.034133	-1.946554	-0.011028	-0.025928	-1.796819	-0.137862	-0.189351	-13.324495	0.000000	0.000000	22.783232	3.312737	7.372832	18.643699	-5.398374	88.654276	34.880449	83.137395	6.415518	-5.863870	5.180781	-7.437013	41.319642	46.954492	83.944066	15.974771	16.143377
2.633333	0.355131	-5.750420	101.301924	0.207051	1.003199	0.521218	-3.233407	2.258740	-10.411644	4.715649	0.082304	25.324062	-5.604268	0.000000	-0.011343	-0.782025	6.356585	7.403684	0.129219	28.779110	-1.839125	0.000000	-0.021767	-0.021476	-2.375537	-0.040423	-0.028563	-2.524008	-0.035760	-0.052216	-2.524008	-0.024877	-0.052216	-2.078595	-0.020212	-0.043794	-1.930124	-0.012437	-0.033266	-1.781653	-0.155477	-0.242939	-13.212024	0.000000	0.000000	22.640953	3.387729	7.174599	18.279741	-5.528752	87.191353	35.341385	82.049165	6.866993	-5.358426	4.873567	-7.517301	40.424842	47.661320	83.842975	15.700105	16.746760
2.650000	0.345995	-5.777622	101.218148	0.207678	1.003233	0.521171	-3.365737	2.335532	-9.632702	4.387602	0.076578	24.982030	-6.485213	0.000000	-0.030639	-0.795617	6.658457	7.285662	0.127159	28.731637	-2.072757	0.000000	-0.024147	-0.030186	-2.348765	-0.044844	-0.040147	-2.495562	-0.039672	-0.073393	-2.495562	-0.027598	-0.073393	-2.055169	-0.022423	-0.061555	-1.908371	-0.013798	-0.046758	-1.761573	-0.172482	-0.341466	-13.063124	0.000000	0.000000	22.520711	3.465800	6.903924	17.902199	-5.654107	85.795564	35.792642	80.532206	7.409342	-4.772339	4.562453	-7.582817	39.442151	48.356616	83.830899	15.583784	17.376589
2.666667	0.297827	-5.806300	101.090979	0.208269	1.003259	0.520980	-3.526149	2.366685	-8.812575	4.057227	0.070812	24.590799	-7.428617	0.000000	-0.092101	-0.755455	7.152979	7.112263	0.124132	28.602299	-2.621937	0.000000	-0.026558	-0.042693	-2.308242	-0.049320	-0.056782	-2.452507	-0.043631	-0.103805	-2.452507	-0.030353	-0.103805	-2.019712	-0.024661	-0.087060	-1.875446	-0.015175	-0.066132	-1.731181	-0.189698	-0.482957	-12.837748	0.000000	0.000000	22.425506	3.519120	6.525204	17.472036	-5.797535	84.155703	36.244760	79.781113	8.010109	-4.134576	4.283483	-7.637301	38.510744	48.996102	83.892607	15.630528	17.952120
2.683333	0.207990	-5.828541	100.930525	0.208824	1.003287	0.520667	-3.713563	2.340873	-8.133896	3.748088	0.065416	24.215564	-8.185939	0.000000	-0.182197	-0.673473	7.586493	6.931312	0.120974	28.459247	-3.153985	0.000000	-0.029284	-0.059078	-2.263097	-0.054383	-0.078573	-2.404541	-0.048110	-0.143642	-2.404541	-0.033468	-0.143642	-1.980210	-0.027193	-0.120471	-1.838766	-0.016733	-0.091511	-1.697323	-0.209171	-0.668300	-12.586668	0.000000	0.000000	22.338976	3.554416	6.072212	17.104296	-5.918913	82.808663	36.661190	78.664693	8.666897	-3.477277	4.014302	-7.675350	37.565964	49.562399	84.079903	15.905547	18.465056
2.700000	0.087141	-5.835892	100.721227	0.209340	1.003311	0.520228	-3.929884	2.270208	-7.496648	3.458832	0.060368	23.842154	-8.860348	0.000000	-0.318683	-0.552558	8.079619	6.726291	0.117396	28.249191	-3.882907	0.000000	-0.032599	-0.077145	-2.212782	-0.060539	-0.102602	-2.351081	-0.053556	-0.187569	-2.351081	-0.037257	-0.187569	-1.936184	-0.030271	-0.157313	-1.797885	-0.018627	-0.119497	-1.659586	-0.232849	-0.872675	-12.306829	0.000000	0.000000	22.261362	3.593171	5.624305	16.807297	-6.027073	81.618918	37.061180	78.347996	9.234949	-2.910249	3.776089	-7.710113	36.725179	50.043939	84.322065	16.316759	18.889766
2.716667	-0.061878	-5.822133	100.489009	0.209804	1.003337	0.519687	-4.174856	2.151017	-7.068433	3.202173	0.055888	23.532433	-9.233620	0.000000	-0.488555	-0.411149	8.440914	6.532705	0.114017	28.031209	-4.521591	0.000000	-0.036713	-0.096457	-2.167442	-0.068179	-0.128288	-2.302908	-0.060315	-0.234525	-2.302908	-0.041959	-0.234525	-1.896512	-0.034091	-0.196695	-1.761047	-0.020978	-0.149412	-1.625582	-0.262235	-1.091138	-12.054665	0.000000	0.000000	22.182587	3.648450	5.237829	16.660961	-6.087383	80.972782	37.403110	78.071102	9.665854	-2.490146	3.543340	-7.741618	35.923337	50.436659	84.657914	16.891610	19.211445
2.733333	-0.237687	-5.781431	100.174039	0.210290	1.003361	0.518978	-4.453522	1.993320	-6.582162	2.957714	0.051622	23.249831	-9.567972	0.000000	-0.733648	-0.230986	8.896895	6.290167	0.109784	27.710036	-5.459196	0.000000	-0.040986	-0.116928	-2.108520	-0.076115	-0.155514	-2.240303	-0.067336	-0.284299	-2.240303	-0.046843	-0.284299	-1.844955	-0.038060	-0.238439	-1.713173	-0.023419	-0.181121	-1.581390	-0.292758	-1.322712	-11.726957	0.000000	0.000000	22.087582	3.708018	4.892386	16.564133	-6.136455	80.511172	37.708634	78.113473	10.040189	-2.140797	3.342781	-7.786399	35.314127	50.745575	84.996256	17.468591	19.434056
2.750000	-0.425886	-5.718036	99.828181	0.210746	1.003375	0.518129	-4.755688	1.811214	-6.235448	2.734048	0.047718	23.067144	-9.629904	0.000000	-1.023856	-0.039519	9.359836	6.040459	0.105426	27.352905	-6.483204	0.000000	-0.044800	-0.137212	-2.049679	-0.083198	-0.182492	-2.177784	-0.073602	-0.333617	-2.177784	-0.051202	-0.333617	-1.793469	-0.041601	-0.279802	-1.665364	-0.025599	-0.212541	-1.537259	-0.320001	-1.552167	-11.399701	0.000000	0.000000	21.988063	3.767151	4.621245	16.545932	-6.149789	80.360257	37.939060	78.415927	10.326715	-1.982688	3.148289	-7.840417	34.837711	50.976378	85.346394	18.017930	19.546554
2.766667	-0.625887	-5.632689	99.403898	0.211257	1.003375	0.517155	-5.078479	1.608703	-5.708263	2.508751	0.043786	22.914137	-9.776015	0.000000	-1.375635	0.174865	9.921172	5.747410	0.100311	26.909934	-7.783303	0.000000	-0.048275	-0.157747	-1.978062	-0.089651	-0.209803	-2.101691	-0.079311	-0.383545	-2.101691	-0.055173	-0.383545	-1.730804	-0.044828	-0.321677	-1.607175	-0.027584	-0.244350	-1.483546	-0.344823	-1.784463	-11.001387	0.000000	0.000000	21.881152	3.838224	4.434565	16.556042	-6.144049	80.372016	38.115490	78.753359	10.598362	-1.884121	2.971843	-7.908109	34.512633	51.143157	85.688600	18.522925	19.609837
2.783333	-0.825454	-5.530416	98.929672	0.211811	1.003360	0.516112	-5.403906	1.393026	-5.252294	2.296150	0.040075	22.879833	-9.682534	0.000000	-1.762200	0.389422	10.451711	5.436979	0.094893	26.449629	-9.121974	0.000000	-0.051229	-0.177577	-1.900574	-0.095137	-0.236177	-2.019360	-0.084164	-0.431760	-2.019360	-0.058549	-0.431760	-1.663002	-0.047571	-0.362114	-1.544216	-0.029272	-0.275066	-1.425430	-0.365923	-2.008781	-10.570421	0.000000	0.000000	21.767470	3.922106	4.358347	16.610749	-6.120027	80.605443	38.246550	78.957834	10.821312	-1.836839	2.800883	-7.984211	34.276871	51.262518	86.047159	18.980300	19.654741
2.800000	-1.019134	-5.414167	98.402037	0.212442	1.003334	0.515035	-5.721879	1.169529	-4.770154	2.094628	0.036558	22.943589	-9.466168	0.000000	-2.171488	0.597555	10.896382	5.117233	0.089313	26.006397	-10.418723	0.000000	-0.053719	-0.196674	-1.814470	-0.099762	-0.261577	-1.927874	-0.088256	-0.478194	-1.927874	-0.061396	-0.478194	-1.587661	-0.049884	-0.401058	-1.474257	-0.030695	-0.304649	-1.360852	-0.383712	-2.224819	-10.091537	0.000000	0.000000	21.645935	4.007863	4.370492	16.687927	-6.076801	80.981448	38.318418	79.039725	11.050401	-1.849507	2.647627	-8.073054	34.144631	51.341153	86.396008	19.364829	19.673883
2.816667	-1.198104	-5.281691	97.843338	0.213124	1.003306	0.513976	-6.024008	0.947811	-4.330289	1.916328	0.033446	23.125061	-9.056349	0.000000	-2.596614	0.789838	11.275409	4.791554	0.083628	25.595479	-11.654687	0.000000	-0.056475	-0.213971	-1.725122	-0.104880	-0.284582	-1.832942	-0.092783	-0.520249	-1.832942	-0.064545	-0.520249	-1.509482	-0.052443	-0.436330	-1.401662	-0.032270	-0.331441	-1.293842	-0.403395	-2.420484	-9.594612	0.000000	0.000000	21.501302	4.098752	4.498997	16.828835	-6.018665	81.605113	38.347835	79.046966	11.204655	-1.948699	2.524946	-8.177065	34.121251	51.382724	86.715079	19.677434	19.632463
